HIERARCHY
ROOT Hips
{
	OFFSET 0.000000 0.000000 0.000000 
	CHANNELS 6 Xposition Yposition Zposition Yrotation Zrotation Xrotation 
	JOINT Lumbar
	{
		OFFSET 0.000000 0.000000 0.000000 
		CHANNELS 3 Zrotation Xrotation Yrotation
		JOINT Neck
		{
			OFFSET 0.000000 0.445665 0.000000 
			CHANNELS 3 Zrotation Xrotation Yrotation
			End Site
			{
				OFFSET 0.000000 0.227535 0.000000 
			}
		}
		JOINT RightShoulder
		{
			OFFSET 0.019635 0.377685 0.194865 
			CHANNELS 3 Zrotation Xrotation Yrotation
			JOINT RightElbow
			{
				OFFSET 0.000000 -0.243375 0.000000 
				CHANNELS 2 Zrotation Yrotation
				JOINT RightWrist
				{
					OFFSET 0.000000 -0.264825 0.000000 
					CHANNELS 2 Zrotation Xrotation
					End Site
					{
						OFFSET 0.006600 -0.176220 0.000990 
					}
				}
			}
		}
		JOINT LeftShoulder
		{
			OFFSET 0.019635 0.377685 -0.194865 
			CHANNELS 3 Zrotation Xrotation Yrotation
			JOINT LeftElbow
			{
				OFFSET 0.000000 -0.243375 0.000000 
				CHANNELS 2 Zrotation Yrotation
				JOINT LeftWrist
				{
					OFFSET 0.000000 -0.264825 0.000000 
					CHANNELS 2 Zrotation Xrotation
					End Site
					{
						OFFSET 0.006600 -0.176220 -0.000990 
					}
				}
			}
		}
	}
	JOINT RightHip
	{
		OFFSET 0.052140 -0.069960 0.075570 
		CHANNELS 3 Zrotation Xrotation Yrotation
		JOINT RightKnee
		{
			OFFSET 0.000000 -0.402270 0.000000 
			CHANNELS 1 Zrotation
			JOINT RightAnkle
			{
				OFFSET 0.000000 -0.404085 0.000000 
				CHANNELS 3 Zrotation Xrotation Yrotation
				End Site
				{
					OFFSET 0.204105 -0.089430 0.008415 
				}
			}
		}
	}
	JOINT LeftHip
	{
		OFFSET 0.052140 -0.069960 -0.075570 
		CHANNELS 3 Zrotation Xrotation Yrotation
		JOINT LeftKnee
		{
			OFFSET 0.000000 -0.402270 0.000000 
			CHANNELS 1 Zrotation
			JOINT LeftAnkle
			{
				OFFSET 0.000000 -0.404085 0.000000 
				CHANNELS 3 Zrotation Xrotation Yrotation
				End Site
				{
					OFFSET 0.204105 -0.089430 -0.008415 
				}
			}
		}
	}
}
MOTION
Frames: 11
Frame Time: 0.02
-0.05778 0.94992 -0.49685 234.83507 0 -1.35429 11.61663 -2.30705 3.06154 -17.75122 0.50727 2.21707 14.07823 -17.12153 -12.34724 132.38995 65.50451 -74.09265 -7.16274 17.28743 15.84088 15.8684 101.67506 -41.58762 71.84237 6.78807 13.14193 7.01564 10.32395 -59.39815 5.18549 -5.46045 -12.08066 5.42485 -5.31854 -11.06154 -19.50988 8.26881 6.80424 11.64186
-0.06425 0.95054 -0.4894 235.54961 0 -1.72806 11.03013 -1.96657 2.49011 -17.46752 0.92556 2.10283 13.63448 -17.40391 -12.72796 132.73215 69.16561 -74.05253 -7.11503 15.92883 14.95919 18.04779 102.09467 -39.6605 72.73733 7.15543 14.44617 7.09669 11.61077 -57.04756 4.91047 -5.33307 -12.85626 4.80844 -4.91364 -11.69965 -19.40568 8.63682 7.00299 11.65514
-0.07088 0.95095 -0.48215 236.296 0 -2.07199 10.37819 -1.62049 1.84557 -16.89302 1.45311 1.96357 12.97004 -17.77129 -13.24738 132.96644 72.91348 -74.06553 -7.89381 14.075 14.03847 20.74025 102.47734 -37.3996 73.92926 7.61013 15.49746 7.07823 13.2398 -53.78612 4.46871 -5.06634 -13.46925 4.21884 -4.51616 -12.37043 -19.33825 9.01017 7.22256 11.70509
-0.07749 0.95143 -0.47479 237.02505 0 -2.4213 9.76437 -1.28107 1.24789 -16.44176 1.92765 1.83926 12.37833 -18.10132 -13.64247 133.24291 76.45016 -74.05861 -8.31472 12.46553 13.11237 23.14898 102.82496 -35.27166 74.94146 8.03958 16.64138 7.0863 14.73263 -50.90221 4.11234 -4.86753 -14.09558 3.61208 -4.11778 -13.01926 -19.24875 9.3814 7.43416 11.73228
-0.08385 0.95202 -0.46756 237.76625 0 -2.80768 9.10859 -0.92082 0.58962 -16.0165 2.4159 1.69691 11.88382 -18.42928 -14.28717 133.56036 80.77674 -74.03589 -8.6393 10.75071 12.28361 25.79812 103.39959 -33.21256 76.13053 8.40728 17.87824 7.17065 16.15992 -48.1228 3.7237 -4.65681 -14.99398 3.02872 -3.70637 -13.69785 -19.18289 9.75043 7.63754 11.78466
-0.09078 0.95232 -0.46008 238.49059 0 -3.10989 8.52912 -0.60347 0.04126 -15.47628 2.90055 1.58729 11.14956 -18.77724 -14.45409 133.75541 83.44023 -74.05294 -9.34616 9.15162 11.2484 28.04484 103.48577 -30.93737 77.03217 8.9262 18.86121 7.07801 17.79207 -44.94188 3.35862 -4.43442 -15.28381 2.40244 -3.32331 -14.3242 -19.07792 10.12612 7.86518 11.79484
-0.0991 0.95184 -0.45194 239.15011 0 -3.17355 8.1521 -0.41169 -0.18495 -14.64223 3.36299 1.57396 9.70854 -19.20027 -13.19741 133.72682 81.66353 -74.22532 -11.19604 7.9327 9.58605 29.22071 102.28403 -28.11833 76.99219 9.81913 19.21274 6.4653 19.98893 -40.707 3.11027 -4.22105 -13.89779 1.64792 -3.03595 -14.775 -18.8363 10.51257 8.13639 11.66272
-0.10803 0.95107 -0.44354 239.79386 0 -3.15574 7.85895 -0.26265 -0.29814 -13.71182 3.81551 1.59448 8.05183 -19.63364 -11.46872 133.56464 78.17652 -74.42341 -13.35937 6.8598 7.72963 29.94376 100.58636 -25.10248 76.66485 10.86305 19.31557 5.68803 22.36282 -36.13543 2.88855 -3.99903 -11.91069 0.85039 -2.77389 -15.17633 -18.55887 10.90645 8.43449 11.48985
-0.11678 0.95041 -0.43522 240.45094 0 -3.18314 7.54433 -0.09106 -0.46256 -12.85854 4.26351 1.60065 6.56252 -20.03477 -10.00248 133.40168 75.34445 -74.5745 -15.19038 5.76425 6.00384 30.76042 99.07532 -22.19322 76.52259 11.85497 19.52852 5.02211 24.60113 -31.83333 2.64617 -3.77449 -10.21642 0.07309 -2.48831 -15.6151 -18.3083 11.30152 8.73265 11.34648
-0.12512 0.94982 -0.42708 241.08111 0 -3.17392 7.1584 0.06702 -0.62837 -11.85681 4.75382 1.6033 4.78032 -20.55226 -8.33816 133.48277 73.00901 -74.88499 -17.83243 4.47256 4.09438 32.0584 97.70774 -19.1886 76.17153 12.78867 19.74816 4.19798 27.08721 -27.00808 2.43328 -3.56993 -8.42547 -0.70985 -2.25376 -15.99124 -18.00791 11.67876 8.98079 11.158
-0.13447 0.94904 -0.4185 241.76567 0 -3.22337 6.94012 0.24374 -0.76571 -11.142 5.15173 1.61945 3.54992 -20.83234 -6.97308 133.04012 69.26146 -74.85821 -18.87229 3.62306 2.526 32.25267 95.94776 -16.35426 76.16954 13.86724 19.89397 3.6661 29.0911 -23.20338 2.16865 -3.32664 -6.70568 -1.48691 -1.91872 -16.48649 -17.81039 12.09321 9.33786 11.05338
